solid OpenSCAD_Model
  facet normal 0.997808 0.0661811 0
    outer loop
      vertex 210 177 40
      vertex 209.974 177.392 0
      vertex 209.974 177.392 40
    endloop
  endfacet
  facet normal 0.997808 0.0661811 0
    outer loop
      vertex 209.974 177.392 0
      vertex 210 177 40
      vertex 210 177 0
    endloop
  endfacet
  facet normal 1 0 0
    outer loop
      vertex 210 177 40
      vertex 210 95 7.5
      vertex 210 177 0
    endloop
  endfacet
  facet normal 1 0 0
    outer loop
      vertex 210 177 40
      vertex 210 85 7.5
      vertex 210 95 7.5
    endloop
  endfacet
  facet normal 1 0 0
    outer loop
      vertex 210 3 0
      vertex 210 85 7.5
      vertex 210 3 40
    endloop
  endfacet
  facet normal 1 -0 0
    outer loop
      vertex 210 3 40
      vertex 210 85 7.5
      vertex 210 177 40
    endloop
  endfacet
  facet normal 1 -0 0
    outer loop
      vertex 210 95 2.5
      vertex 210 177 0
      vertex 210 95 7.5
    endloop
  endfacet
  facet normal 1 -0 0
    outer loop
      vertex 210 85 2.5
      vertex 210 177 0
      vertex 210 95 2.5
    endloop
  endfacet
  facet normal 1 0 0
    outer loop
      vertex 210 85 2.5
      vertex 210 3 0
      vertex 210 177 0
    endloop
  endfacet
  facet normal 1 0 0
    outer loop
      vertex 210 85 7.5
      vertex 210 3 0
      vertex 210 85 2.5
    endloop
  endfacet
  facet normal 0 0 1
    outer loop
      vertex 207.5 177 40
      vertex 210 177 40
      vertex 209.974 177.392 40
    endloop
  endfacet
  facet normal 0 0 1
    outer loop
      vertex 210 177 40
      vertex 207.5 177 40
      vertex 210 3 40
    endloop
  endfacet
  facet normal 0 0 1
    outer loop
      vertex 207.496 177.065 40
      vertex 209.974 177.392 40
      vertex 209.898 177.776 40
    endloop
  endfacet
  facet normal 0 0 1
    outer loop
      vertex 207.5 3 40
      vertex 210 3 40
      vertex 207.5 177 40
    endloop
  endfacet
  facet normal 0 0 1
    outer loop
      vertex 207.483 177.129 40
      vertex 209.898 177.776 40
      vertex 209.772 178.148 40
    endloop
  endfacet
  facet normal 0 0 1
    outer loop
      vertex 210 3 40
      vertex 207.5 3 40
      vertex 209.974 2.60842 40
    endloop
  endfacet
  facet normal 0 0 1
    outer loop
      vertex 207.462 177.191 40
      vertex 209.772 178.148 40
      vertex 209.598 178.5 40
    endloop
  endfacet
  facet normal -0 0 1
    outer loop
      vertex 207.496 2.93474 40
      vertex 209.974 2.60842 40
      vertex 207.5 3 40
    endloop
  endfacet
  facet normal 0 0 1
    outer loop
      vertex 207.433 177.25 40
      vertex 209.598 178.5 40
      vertex 209.38 178.826 40
    endloop
  endfacet
  facet normal 0 0 1
    outer loop
      vertex 209.974 2.60842 40
      vertex 207.496 2.93474 40
      vertex 209.898 2.22354 40
    endloop
  endfacet
  facet normal 0 0 1
    outer loop
      vertex 207.397 177.304 40
      vertex 209.38 178.826 40
      vertex 209.121 179.121 40
    endloop
  endfacet
  facet normal -0 0 1
    outer loop
      vertex 207.483 2.87059 40
      vertex 209.898 2.22354 40
      vertex 207.496 2.93474 40
    endloop
  endfacet
  facet normal 0 0 1
    outer loop
      vertex 207.354 177.354 40
      vertex 209.121 179.121 40
      vertex 208.826 179.38 40
    endloop
  endfacet
  facet normal 0 0 1
    outer loop
      vertex 209.898 2.22354 40
      vertex 207.483 2.87059 40
      vertex 209.772 1.85195 40
    endloop
  endfacet
  facet normal 0 0 1
    outer loop
      vertex 207.304 177.397 40
      vertex 208.826 179.38 40
      vertex 208.5 179.598 40
    endloop
  endfacet
  facet normal -0 0 1
    outer loop
      vertex 207.462 2.80866 40
      vertex 209.772 1.85195 40
      vertex 207.483 2.87059 40
    endloop
  endfacet
  facet normal 0 0 1
    outer loop
      vertex 207.25 177.433 40
      vertex 208.5 179.598 40
      vertex 208.148 179.772 40
    endloop
  endfacet
  facet normal 0 0 1
    outer loop
      vertex 209.772 1.85195 40
      vertex 207.462 2.80866 40
      vertex 209.598 1.5 40
    endloop
  endfacet
  facet normal 0 0 1
    outer loop
      vertex 207.191 177.462 40
      vertex 208.148 179.772 40
      vertex 207.776 179.898 40
    endloop
  endfacet
  facet normal -0 0 1
    outer loop
      vertex 207.433 2.75 40
      vertex 209.598 1.5 40
      vertex 207.462 2.80866 40
    endloop
  endfacet
  facet normal 0 0 1
    outer loop
      vertex 209.598 1.5 40
      vertex 207.433 2.75 40
      vertex 209.38 1.17372 40
    endloop
  endfacet
  facet normal 0 0 1
    outer loop
      vertex 209.974 177.392 40
      vertex 207.496 177.065 40
      vertex 207.5 177 40
    endloop
  endfacet
  facet normal 0 0 1
    outer loop
      vertex 209.898 177.776 40
      vertex 207.483 177.129 40
      vertex 207.496 177.065 40
    endloop
  endfacet
  facet normal 0 0 1
    outer loop
      vertex 209.772 178.148 40
      vertex 207.462 177.191 40
      vertex 207.483 177.129 40
    endloop
  endfacet
  facet normal 0 0 1
    outer loop
      vertex 209.598 178.5 40
      vertex 207.433 177.25 40
      vertex 207.462 177.191 40
    endloop
  endfacet
  facet normal 0 0 1
    outer loop
      vertex 209.38 178.826 40
      vertex 207.397 177.304 40
      vertex 207.433 177.25 40
    endloop
  endfacet
  facet normal 0 0 1
    outer loop
      vertex 207.129 177.483 40
      vertex 207.776 179.898 40
      vertex 207.392 179.974 40
    endloop
  endfacet
  facet normal 0 0 1
    outer loop
      vertex 209.121 179.121 40
      vertex 207.354 177.354 40
      vertex 207.397 177.304 40
    endloop
  endfacet
  facet normal 0 0 1
    outer loop
      vertex 208.826 179.38 40
      vertex 207.304 177.397 40
      vertex 207.354 177.354 40
    endloop
  endfacet
  facet normal 0 0 1
    outer loop
      vertex 208.5 179.598 40
      vertex 207.25 177.433 40
      vertex 207.304 177.397 40
    endloop
  endfacet
  facet normal 0 0 1
    outer loop
      vertex 208.148 179.772 40
      vertex 207.191 177.462 40
      vertex 207.25 177.433 40
    endloop
  endfacet
  facet normal 0 0 1
    outer loop
      vertex 207.776 179.898 40
      vertex 207.129 177.483 40
      vertex 207.191 177.462 40
    endloop
  endfacet
  facet normal 0 0 1
    outer loop
      vertex 207.392 179.974 40
      vertex 207.065 177.496 40
      vertex 207.129 177.483 40
    endloop
  endfacet
  facet normal 0 0 1
    outer loop
      vertex 207 180 40
      vertex 207.065 177.496 40
      vertex 207.392 179.974 40
    endloop
  endfacet
  facet normal 0 0 1
    outer loop
      vertex 207 180 40
      vertex 207 177.5 40
      vertex 207.065 177.496 40
    endloop
  endfacet
  facet normal -0 0 1
    outer loop
      vertex 3 180 40
      vertex 207 177.5 40
      vertex 207 180 40
    endloop
  endfacet
  facet normal 0 0 1
    outer loop
      vertex 3 180 40
      vertex 3 177.5 40
      vertex 207 177.5 40
    endloop
  endfacet
  facet normal 0 0 1
    outer loop
      vertex 3 180 40
      vertex 2.93474 177.496 40
      vertex 3 177.5 40
    endloop
  endfacet
  facet normal -0 0 1
    outer loop
      vertex 2.60842 179.974 40
      vertex 2.93474 177.496 40
      vertex 3 180 40
    endloop
  endfacet
  facet normal 0 0 1
    outer loop
      vertex 2.93474 177.496 40
      vertex 2.60842 179.974 40
      vertex 2.87059 177.483 40
    endloop
  endfacet
  facet normal -0 0 1
    outer loop
      vertex 2.22354 179.898 40
      vertex 2.87059 177.483 40
      vertex 2.60842 179.974 40
    endloop
  endfacet
  facet normal 0 0 1
    outer loop
      vertex 2.87059 177.483 40
      vertex 2.22354 179.898 40
      vertex 2.80866 177.462 40
    endloop
  endfacet
  facet normal -0 0 1
    outer loop
      vertex 1.85195 179.772 40
      vertex 2.80866 177.462 40
      vertex 2.22354 179.898 40
    endloop
  endfacet
  facet normal 0 0 1
    outer loop
      vertex 2.80866 177.462 40
      vertex 1.85195 179.772 40
      vertex 2.75 177.433 40
    endloop
  endfacet
  facet normal -0 0 1
    outer loop
      vertex 1.5 179.598 40
      vertex 2.75 177.433 40
      vertex 1.85195 179.772 40
    endloop
  endfacet
  facet normal 0 0 1
    outer loop
      vertex 2.75 177.433 40
      vertex 1.5 179.598 40
      vertex 2.69562 177.397 40
    endloop
  endfacet
  facet normal -0 0 1
    outer loop
      vertex 1.17372 179.38 40
      vertex 2.69562 177.397 40
      vertex 1.5 179.598 40
    endloop
  endfacet
  facet normal 0 0 1
    outer loop
      vertex 2.69562 177.397 40
      vertex 1.17372 179.38 40
      vertex 2.64645 177.354 40
    endloop
  endfacet
  facet normal -0 0 1
    outer loop
      vertex 0.878679 179.121 40
      vertex 2.64645 177.354 40
      vertex 1.17372 179.38 40
    endloop
  endfacet
  facet normal 0 0 1
    outer loop
      vertex 2.64645 177.354 40
      vertex 0.878679 179.121 40
      vertex 2.60332 177.304 40
    endloop
  endfacet
  facet normal 0 0 1
    outer loop
      vertex 2.60332 177.304 40
      vertex 0.61994 178.826 40
      vertex 2.56699 177.25 40
    endloop
  endfacet
  facet normal -0 0 1
    outer loop
      vertex 0.61994 178.826 40
      vertex 2.60332 177.304 40
      vertex 0.878679 179.121 40
    endloop
  endfacet
  facet normal -0 0 1
    outer loop
      vertex 207.397 2.69562 40
      vertex 209.38 1.17372 40
      vertex 207.433 2.75 40
    endloop
  endfacet
  facet normal 0 0 1
    outer loop
      vertex 209.38 1.17372 40
      vertex 207.397 2.69562 40
      vertex 209.121 0.878679 40
    endloop
  endfacet
  facet normal -0 0 1
    outer loop
      vertex 207.354 2.64645 40
      vertex 209.121 0.878679 40
      vertex 207.397 2.69562 40
    endloop
  endfacet
  facet normal 0 0 1
    outer loop
      vertex 209.121 0.878679 40
      vertex 207.354 2.64645 40
      vertex 208.826 0.61994 40
    endloop
  endfacet
  facet normal -0 0 1
    outer loop
      vertex 207.304 2.60332 40
      vertex 208.826 0.61994 40
      vertex 207.354 2.64645 40
    endloop
  endfacet
  facet normal 0 0 1
    outer loop
      vertex 208.826 0.61994 40
      vertex 207.304 2.60332 40
      vertex 208.5 0.401923 40
    endloop
  endfacet
  facet normal -0 0 1
    outer loop
      vertex 207.25 2.56699 40
      vertex 208.5 0.401923 40
      vertex 207.304 2.60332 40
    endloop
  endfacet
  facet normal 0 0 1
    outer loop
      vertex 208.5 0.401923 40
      vertex 207.25 2.56699 40
      vertex 208.148 0.228361 40
    endloop
  endfacet
  facet normal -0 0 1
    outer loop
      vertex 207.191 2.53806 40
      vertex 208.148 0.228361 40
      vertex 207.25 2.56699 40
    endloop
  endfacet
  facet normal 0 0 1
    outer loop
      vertex 208.148 0.228361 40
      vertex 207.191 2.53806 40
      vertex 207.776 0.102222 40
    endloop
  endfacet
  facet normal -0 0 1
    outer loop
      vertex 207.129 2.51704 40
      vertex 207.776 0.102222 40
      vertex 207.191 2.53806 40
    endloop
  endfacet
  facet normal 0 0 1
    outer loop
      vertex 207.776 0.102222 40
      vertex 207.129 2.51704 40
      vertex 207.392 0.0256653 40
    endloop
  endfacet
  facet normal -0 0 1
    outer loop
      vertex 207.065 2.50428 40
      vertex 207.392 0.0256653 40
      vertex 207.129 2.51704 40
    endloop
  endfacet
  facet normal -0 0 1
    outer loop
      vertex 207 2.5 40
      vertex 207.392 0.0256653 40
      vertex 207.065 2.50428 40
    endloop
  endfacet
  facet normal 0 0 1
    outer loop
      vertex 207 2.5 40
      vertex 207 0 40
      vertex 207.392 0.0256653 40
    endloop
  endfacet
  facet normal -0 0 1
    outer loop
      vertex 3 2.5 40
      vertex 207 0 40
      vertex 207 2.5 40
    endloop
  endfacet
  facet normal 0 0 1
    outer loop
      vertex 3 2.5 40
      vertex 3 0 40
      vertex 207 0 40
    endloop
  endfacet
  facet normal 0 0 1
    outer loop
      vertex 2.93474 2.50428 40
      vertex 3 0 40
      vertex 3 2.5 40
    endloop
  endfacet
  facet normal 0 0 1
    outer loop
      vertex 2.60842 0.0256653 40
      vertex 2.93474 2.50428 40
      vertex 2.87059 2.51704 40
    endloop
  endfacet
  facet normal 0 0 1
    outer loop
      vertex 2.22354 0.102222 40
      vertex 2.87059 2.51704 40
      vertex 2.80866 2.53806 40
    endloop
  endfacet
  facet normal 0 0 1
    outer loop
      vertex 1.85195 0.228361 40
      vertex 2.80866 2.53806 40
      vertex 2.75 2.56699 40
    endloop
  endfacet
  facet normal 0 0 1
    outer loop
      vertex 1.5 0.401923 40
      vertex 2.75 2.56699 40
      vertex 2.69562 2.60332 40
    endloop
  endfacet
  facet normal 0 0 1
    outer loop
      vertex 1.17372 0.61994 40
      vertex 2.69562 2.60332 40
      vertex 2.64645 2.64645 40
    endloop
  endfacet
  facet normal 0 0 1
    outer loop
      vertex 2.93474 2.50428 40
      vertex 2.60842 0.0256653 40
      vertex 3 0 40
    endloop
  endfacet
  facet normal 0 0 1
    outer loop
      vertex 0.878679 0.878679 40
      vertex 2.64645 2.64645 40
      vertex 2.60332 2.69562 40
    endloop
  endfacet
  facet normal 0 0 1
    outer loop
      vertex 0.61994 1.17372 40
      vertex 2.60332 2.69562 40
      vertex 2.56699 2.75 40
    endloop
  endfacet
  facet normal 0 0 1
    outer loop
      vertex 0.401923 1.5 40
      vertex 2.56699 2.75 40
      vertex 2.53806 2.80866 40
    endloop
  endfacet
  facet normal 0 0 1
    outer loop
      vertex 0.228361 1.85195 40
      vertex 2.53806 2.80866 40
      vertex 2.51704 2.87059 40
    endloop
  endfacet
  facet normal 0 0 1
    outer loop
      vertex 0.102222 2.22354 40
      vertex 2.51704 2.87059 40
      vertex 2.50428 2.93474 40
    endloop
  endfacet
  facet normal 0 0 1
    outer loop
      vertex 0.0256653 2.60842 40
      vertex 2.50428 2.93474 40
      vertex 2.5 3 40
    endloop
  endfacet
  facet normal 0 0 1
    outer loop
      vertex 2.87059 2.51704 40
      vertex 2.22354 0.102222 40
      vertex 2.60842 0.0256653 40
    endloop
  endfacet
  facet normal 0 0 1
    outer loop
      vertex 2.5 177 40
      vertex 0 177 40
      vertex 2.5 3 40
    endloop
  endfacet
  facet normal -0 0 1
    outer loop
      vertex 0.401923 178.5 40
      vertex 2.56699 177.25 40
      vertex 0.61994 178.826 40
    endloop
  endfacet
  facet normal 0 0 1
    outer loop
      vertex 0 3 40
      vertex 2.5 3 40
      vertex 0 177 40
    endloop
  endfacet
  facet normal 0 0 1
    outer loop
      vertex 2.56699 177.25 40
      vertex 0.401923 178.5 40
      vertex 2.53806 177.191 40
    endloop
  endfacet
  facet normal 0 -0 1
    outer loop
      vertex 0.0256653 2.60842 40
      vertex 2.5 3 40
      vertex 0 3 40
    endloop
  endfacet
  facet normal -0 0 1
    outer loop
      vertex 0.228361 178.148 40
      vertex 2.53806 177.191 40
      vertex 0.401923 178.5 40
    endloop
  endfacet
  facet normal 0 0 1
    outer loop
      vertex 2.80866 2.53806 40
      vertex 1.85195 0.228361 40
      vertex 2.22354 0.102222 40
    endloop
  endfacet
  facet normal 0 0 1
    outer loop
      vertex 2.53806 177.191 40
      vertex 0.228361 178.148 40
      vertex 2.51704 177.129 40
    endloop
  endfacet
  facet normal 0 0 1
    outer loop
      vertex 2.75 2.56699 40
      vertex 1.5 0.401923 40
      vertex 1.85195 0.228361 40
    endloop
  endfacet
  facet normal -0 0 1
    outer loop
      vertex 0.102222 177.776 40
      vertex 2.51704 177.129 40
      vertex 0.228361 178.148 40
    endloop
  endfacet
  facet normal 0 0 1
    outer loop
      vertex 2.69562 2.60332 40
      vertex 1.17372 0.61994 40
      vertex 1.5 0.401923 40
    endloop
  endfacet
  facet normal 0 0 1
    outer loop
      vertex 2.51704 177.129 40
      vertex 0.102222 177.776 40
      vertex 2.50428 177.065 40
    endloop
  endfacet
  facet normal 0 0 1
    outer loop
      vertex 2.64645 2.64645 40
      vertex 0.878679 0.878679 40
      vertex 1.17372 0.61994 40
    endloop
  endfacet
  facet normal -0 0 1
    outer loop
      vertex 0.0256653 177.392 40
      vertex 2.50428 177.065 40
      vertex 0.102222 177.776 40
    endloop
  endfacet
  facet normal 0 0 1
    outer loop
      vertex 2.60332 2.69562 40
      vertex 0.61994 1.17372 40
      vertex 0.878679 0.878679 40
    endloop
  endfacet
  facet normal 0 0 1
    outer loop
      vertex 2.50428 177.065 40
      vertex 0.0256653 177.392 40
      vertex 2.5 177 40
    endloop
  endfacet
  facet normal 0 0 1
    outer loop
      vertex 2.56699 2.75 40
      vertex 0.401923 1.5 40
      vertex 0.61994 1.17372 40
    endloop
  endfacet
  facet normal 0 0 1
    outer loop
      vertex 2.5 177 40
      vertex 0.0256653 177.392 40
      vertex 0 177 40
    endloop
  endfacet
  facet normal 0 0 1
    outer loop
      vertex 2.53806 2.80866 40
      vertex 0.228361 1.85195 40
      vertex 0.401923 1.5 40
    endloop
  endfacet
  facet normal 0 0 1
    outer loop
      vertex 2.51704 2.87059 40
      vertex 0.102222 2.22354 40
      vertex 0.228361 1.85195 40
    endloop
  endfacet
  facet normal 0 0 1
    outer loop
      vertex 2.50428 2.93474 40
      vertex 0.0256653 2.60842 40
      vertex 0.102222 2.22354 40
    endloop
  endfacet
  facet normal -1 0 0
    outer loop
      vertex 0 95 7.5
      vertex 0 177 0
      vertex 0 95 2.5
    endloop
  endfacet
  facet normal -1 0 0
    outer loop
      vertex 0 177 0
      vertex 0 85 2.5
      vertex 0 95 2.5
    endloop
  endfacet
  facet normal -1 -0 0
    outer loop
      vertex 0 85 2.5
      vertex 0 3 0
      vertex 0 85 7.5
    endloop
  endfacet
  facet normal -1 0 0
    outer loop
      vertex 0 3 0
      vertex 0 85 2.5
      vertex 0 177 0
    endloop
  endfacet
  facet normal -1 0 0
    outer loop
      vertex 0 177 0
      vertex 0 95 7.5
      vertex 0 177 40
    endloop
  endfacet
  facet normal -1 0 0
    outer loop
      vertex 0 85 7.5
      vertex 0 177 40
      vertex 0 95 7.5
    endloop
  endfacet
  facet normal -1 0 0
    outer loop
      vertex 0 3 40
      vertex 0 85 7.5
      vertex 0 3 0
    endloop
  endfacet
  facet normal -1 0 0
    outer loop
      vertex 0 85 7.5
      vertex 0 3 40
      vertex 0 177 40
    endloop
  endfacet
  facet normal 0 0 -1
    outer loop
      vertex 207 0 0
      vertex 210 3 0
      vertex 209.974 2.60842 0
    endloop
  endfacet
  facet normal -0 0 -1
    outer loop
      vertex 210 3 0
      vertex 207 0 0
      vertex 210 177 0
    endloop
  endfacet
  facet normal 0 0 -1
    outer loop
      vertex 207 0 0
      vertex 209.974 2.60842 0
      vertex 209.898 2.22354 0
    endloop
  endfacet
  facet normal 0 0 -1
    outer loop
      vertex 207 180 0
      vertex 210 177 0
      vertex 207 0 0
    endloop
  endfacet
  facet normal 0 0 -1
    outer loop
      vertex 207 0 0
      vertex 209.898 2.22354 0
      vertex 209.772 1.85195 0
    endloop
  endfacet
  facet normal 0 0 -1
    outer loop
      vertex 210 177 0
      vertex 207 180 0
      vertex 209.974 177.392 0
    endloop
  endfacet
  facet normal 0 0 -1
    outer loop
      vertex 207 0 0
      vertex 209.772 1.85195 0
      vertex 209.598 1.5 0
    endloop
  endfacet
  facet normal 0 0 -1
    outer loop
      vertex 209.974 177.392 0
      vertex 207 180 0
      vertex 209.898 177.776 0
    endloop
  endfacet
  facet normal 0 0 -1
    outer loop
      vertex 207 0 0
      vertex 209.598 1.5 0
      vertex 209.38 1.17372 0
    endloop
  endfacet
  facet normal 0 0 -1
    outer loop
      vertex 209.898 177.776 0
      vertex 207 180 0
      vertex 209.772 178.148 0
    endloop
  endfacet
  facet normal 0 0 -1
    outer loop
      vertex 207 0 0
      vertex 209.38 1.17372 0
      vertex 209.121 0.878679 0
    endloop
  endfacet
  facet normal 0 0 -1
    outer loop
      vertex 209.772 178.148 0
      vertex 207 180 0
      vertex 209.598 178.5 0
    endloop
  endfacet
  facet normal 0 0 -1
    outer loop
      vertex 207 0 0
      vertex 209.121 0.878679 0
      vertex 208.826 0.61994 0
    endloop
  endfacet
  facet normal 0 0 -1
    outer loop
      vertex 209.598 178.5 0
      vertex 207 180 0
      vertex 209.38 178.826 0
    endloop
  endfacet
  facet normal 0 0 -1
    outer loop
      vertex 207 0 0
      vertex 208.826 0.61994 0
      vertex 208.5 0.401923 0
    endloop
  endfacet
  facet normal 0 0 -1
    outer loop
      vertex 209.38 178.826 0
      vertex 207 180 0
      vertex 209.121 179.121 0
    endloop
  endfacet
  facet normal 0 0 -1
    outer loop
      vertex 207 0 0
      vertex 208.5 0.401923 0
      vertex 208.148 0.228361 0
    endloop
  endfacet
  facet normal 0 0 -1
    outer loop
      vertex 209.121 179.121 0
      vertex 207 180 0
      vertex 208.826 179.38 0
    endloop
  endfacet
  facet normal 0 0 -1
    outer loop
      vertex 207 0 0
      vertex 208.148 0.228361 0
      vertex 207.776 0.102222 0
    endloop
  endfacet
  facet normal 0 0 -1
    outer loop
      vertex 208.826 179.38 0
      vertex 207 180 0
      vertex 208.5 179.598 0
    endloop
  endfacet
  facet normal 0 0 -1
    outer loop
      vertex 207 0 0
      vertex 207.776 0.102222 0
      vertex 207.392 0.0256653 0
    endloop
  endfacet
  facet normal 0 0 -1
    outer loop
      vertex 208.5 179.598 0
      vertex 207 180 0
      vertex 208.148 179.772 0
    endloop
  endfacet
  facet normal 0 0 -1
    outer loop
      vertex 208.148 179.772 0
      vertex 207 180 0
      vertex 207.776 179.898 0
    endloop
  endfacet
  facet normal 0 0 -1
    outer loop
      vertex 207.776 179.898 0
      vertex 207 180 0
      vertex 207.392 179.974 0
    endloop
  endfacet
  facet normal 0 0 -1
    outer loop
      vertex 3 0 0
      vertex 207 180 0
      vertex 207 0 0
    endloop
  endfacet
  facet normal 0 0 -1
    outer loop
      vertex 3 0 0
      vertex 3 180 0
      vertex 207 180 0
    endloop
  endfacet
  facet normal 0 0 -1
    outer loop
      vertex 0 3 0
      vertex 3 0 0
      vertex 2.60842 0.0256653 0
    endloop
  endfacet
  facet normal 0 0 -1
    outer loop
      vertex 3 0 0
      vertex 0 3 0
      vertex 3 180 0
    endloop
  endfacet
  facet normal 0 0 -1
    outer loop
      vertex 0 3 0
      vertex 2.60842 0.0256653 0
      vertex 2.22354 0.102222 0
    endloop
  endfacet
  facet normal 0 0 -1
    outer loop
      vertex 0 177 0
      vertex 3 180 0
      vertex 0 3 0
    endloop
  endfacet
  facet normal 0 0 -1
    outer loop
      vertex 0 3 0
      vertex 2.22354 0.102222 0
      vertex 1.85195 0.228361 0
    endloop
  endfacet
  facet normal 0 0 -1
    outer loop
      vertex 3 180 0
      vertex 0 177 0
      vertex 2.60842 179.974 0
    endloop
  endfacet
  facet normal 0 0 -1
    outer loop
      vertex 0 3 0
      vertex 1.85195 0.228361 0
      vertex 1.5 0.401923 0
    endloop
  endfacet
  facet normal 0 0 -1
    outer loop
      vertex 2.60842 179.974 0
      vertex 0 177 0
      vertex 2.22354 179.898 0
    endloop
  endfacet
  facet normal 0 0 -1
    outer loop
      vertex 0 3 0
      vertex 1.5 0.401923 0
      vertex 1.17372 0.61994 0
    endloop
  endfacet
  facet normal 0 0 -1
    outer loop
      vertex 2.22354 179.898 0
      vertex 0 177 0
      vertex 1.85195 179.772 0
    endloop
  endfacet
  facet normal 0 0 -1
    outer loop
      vertex 0 3 0
      vertex 1.17372 0.61994 0
      vertex 0.878679 0.878679 0
    endloop
  endfacet
  facet normal 0 0 -1
    outer loop
      vertex 1.85195 179.772 0
      vertex 0 177 0
      vertex 1.5 179.598 0
    endloop
  endfacet
  facet normal 0 0 -1
    outer loop
      vertex 0 3 0
      vertex 0.878679 0.878679 0
      vertex 0.61994 1.17372 0
    endloop
  endfacet
  facet normal 0 0 -1
    outer loop
      vertex 1.5 179.598 0
      vertex 0 177 0
      vertex 1.17372 179.38 0
    endloop
  endfacet
  facet normal 0 0 -1
    outer loop
      vertex 0 3 0
      vertex 0.61994 1.17372 0
      vertex 0.401923 1.5 0
    endloop
  endfacet
  facet normal 0 0 -1
    outer loop
      vertex 1.17372 179.38 0
      vertex 0 177 0
      vertex 0.878679 179.121 0
    endloop
  endfacet
  facet normal 0 0 -1
    outer loop
      vertex 0 3 0
      vertex 0.401923 1.5 0
      vertex 0.228361 1.85195 0
    endloop
  endfacet
  facet normal 0 0 -1
    outer loop
      vertex 0.878679 179.121 0
      vertex 0 177 0
      vertex 0.61994 178.826 0
    endloop
  endfacet
  facet normal 0 0 -1
    outer loop
      vertex 0 3 0
      vertex 0.228361 1.85195 0
      vertex 0.102222 2.22354 0
    endloop
  endfacet
  facet normal 0 0 -1
    outer loop
      vertex 0.61994 178.826 0
      vertex 0 177 0
      vertex 0.401923 178.5 0
    endloop
  endfacet
  facet normal 0 0 -1
    outer loop
      vertex 0 3 0
      vertex 0.102222 2.22354 0
      vertex 0.0256653 2.60842 0
    endloop
  endfacet
  facet normal 0 0 -1
    outer loop
      vertex 0.401923 178.5 0
      vertex 0 177 0
      vertex 0.228361 178.148 0
    endloop
  endfacet
  facet normal 0 0 -1
    outer loop
      vertex 0.228361 178.148 0
      vertex 0 177 0
      vertex 0.102222 177.776 0
    endloop
  endfacet
  facet normal 0 0 -1
    outer loop
      vertex 0.102222 177.776 0
      vertex 0 177 0
      vertex 0.0256653 177.392 0
    endloop
  endfacet
  facet normal 0 1 -0
    outer loop
      vertex 207 180 0
      vertex 3 180 40
      vertex 207 180 40
    endloop
  endfacet
  facet normal 0 1 0
    outer loop
      vertex 3 180 40
      vertex 207 180 0
      vertex 3 180 0
    endloop
  endfacet
  facet normal 0.0661811 0.997808 -0
    outer loop
      vertex 207.392 179.974 0
      vertex 207 180 40
      vertex 207.392 179.974 40
    endloop
  endfacet
  facet normal 0.0661811 0.997808 0
    outer loop
      vertex 207 180 40
      vertex 207.392 179.974 0
      vertex 207 180 0
    endloop
  endfacet
  facet normal 0.195519 -0.9807 0
    outer loop
      vertex 207.392 0.0256653 0
      vertex 207.776 0.102222 40
      vertex 207.392 0.0256653 40
    endloop
  endfacet
  facet normal 0.195519 -0.9807 0
    outer loop
      vertex 207.776 0.102222 40
      vertex 207.392 0.0256653 0
      vertex 207.776 0.102222 0
    endloop
  endfacet
  facet normal -0.997859 -0.0654026 0
    outer loop
      vertex 0.0256653 2.60842 0
      vertex 0 3 40
      vertex 0 3 0
    endloop
  endfacet
  facet normal -0.997859 -0.0654026 0
    outer loop
      vertex 0 3 40
      vertex 0.0256653 2.60842 0
      vertex 0.0256653 2.60842 40
    endloop
  endfacet
  facet normal 0.947145 0.320807 0
    outer loop
      vertex 209.898 177.776 40
      vertex 209.772 178.148 0
      vertex 209.772 178.148 40
    endloop
  endfacet
  facet normal 0.947145 0.320807 0
    outer loop
      vertex 209.772 178.148 0
      vertex 209.898 177.776 40
      vertex 209.898 177.776 0
    endloop
  endfacet
  facet normal 0 -1 0
    outer loop
      vertex 3 0 0
      vertex 207 0 40
      vertex 3 0 40
    endloop
  endfacet
  facet normal 0 -1 -0
    outer loop
      vertex 207 0 40
      vertex 3 0 0
      vertex 207 0 0
    endloop
  endfacet
  facet normal -0.751801 0.65939 0
    outer loop
      vertex 0.61994 178.826 0
      vertex 0.878679 179.121 40
      vertex 0.878679 179.121 0
    endloop
  endfacet
  facet normal -0.751801 0.65939 0
    outer loop
      vertex 0.878679 179.121 40
      vertex 0.61994 178.826 0
      vertex 0.61994 178.826 40
    endloop
  endfacet
  facet normal 0.443134 0.896455 -0
    outer loop
      vertex 208.5 179.598 0
      vertex 208.148 179.772 40
      vertex 208.5 179.598 40
    endloop
  endfacet
  facet normal 0.443134 0.896455 0
    outer loop
      vertex 208.148 179.772 40
      vertex 208.5 179.598 0
      vertex 208.148 179.772 0
    endloop
  endfacet
  facet normal 0.555877 0.831265 -0
    outer loop
      vertex 208.826 179.38 0
      vertex 208.5 179.598 40
      vertex 208.826 179.38 40
    endloop
  endfacet
  facet normal 0.555877 0.831265 0
    outer loop
      vertex 208.5 179.598 40
      vertex 208.826 179.38 0
      vertex 208.5 179.598 0
    endloop
  endfacet
  facet normal 0.320807 0.947145 -0
    outer loop
      vertex 208.148 179.772 0
      vertex 207.776 179.898 40
      vertex 208.148 179.772 40
    endloop
  endfacet
  facet normal 0.320807 0.947145 0
    outer loop
      vertex 207.776 179.898 40
      vertex 208.148 179.772 0
      vertex 207.776 179.898 0
    endloop
  endfacet
  facet normal 0.555906 -0.831245 0
    outer loop
      vertex 208.5 0.401923 0
      vertex 208.826 0.61994 40
      vertex 208.5 0.401923 40
    endloop
  endfacet
  facet normal 0.555906 -0.831245 0
    outer loop
      vertex 208.826 0.61994 40
      vertex 208.5 0.401923 0
      vertex 208.826 0.61994 0
    endloop
  endfacet
  facet normal 0.65939 -0.751801 0
    outer loop
      vertex 208.826 0.61994 0
      vertex 209.121 0.878679 40
      vertex 208.826 0.61994 40
    endloop
  endfacet
  facet normal 0.65939 -0.751801 0
    outer loop
      vertex 209.121 0.878679 40
      vertex 208.826 0.61994 0
      vertex 209.121 0.878679 0
    endloop
  endfacet
  facet normal 0.0653328 -0.997864 0
    outer loop
      vertex 207 0 0
      vertex 207.392 0.0256653 40
      vertex 207 0 40
    endloop
  endfacet
  facet normal 0.0653328 -0.997864 0
    outer loop
      vertex 207.392 0.0256653 40
      vertex 207 0 0
      vertex 207.392 0.0256653 0
    endloop
  endfacet
  facet normal -0.896898 0.442237 0
    outer loop
      vertex 0.228361 178.148 0
      vertex 0.401923 178.5 40
      vertex 0.401923 178.5 0
    endloop
  endfacet
  facet normal -0.896898 0.442237 0
    outer loop
      vertex 0.401923 178.5 40
      vertex 0.228361 178.148 0
      vertex 0.228361 178.148 40
    endloop
  endfacet
  facet normal -0.947037 0.321124 0
    outer loop
      vertex 0.102222 177.776 0
      vertex 0.228361 178.148 40
      vertex 0.228361 178.148 0
    endloop
  endfacet
  facet normal -0.947037 0.321124 0
    outer loop
      vertex 0.228361 178.148 40
      vertex 0.102222 177.776 0
      vertex 0.102222 177.776 40
    endloop
  endfacet
  facet normal -0.997864 0.0653328 0
    outer loop
      vertex 0 177 0
      vertex 0.0256653 177.392 40
      vertex 0.0256653 177.392 0
    endloop
  endfacet
  facet normal -0.997864 0.0653328 0
    outer loop
      vertex 0.0256653 177.392 40
      vertex 0 177 0
      vertex 0 177 40
    endloop
  endfacet
  facet normal -0.659714 0.751516 0
    outer loop
      vertex 1.17372 179.38 0
      vertex 0.878679 179.121 40
      vertex 1.17372 179.38 40
    endloop
  endfacet
  facet normal -0.659714 0.751516 0
    outer loop
      vertex 0.878679 179.121 40
      vertex 1.17372 179.38 0
      vertex 0.878679 179.121 0
    endloop
  endfacet
  facet normal -0.555547 0.831485 0
    outer loop
      vertex 1.5 179.598 0
      vertex 1.17372 179.38 40
      vertex 1.5 179.598 40
    endloop
  endfacet
  facet normal -0.555547 0.831485 0
    outer loop
      vertex 1.17372 179.38 40
      vertex 1.5 179.598 0
      vertex 1.17372 179.38 0
    endloop
  endfacet
  facet normal -0.193723 0.981056 0
    outer loop
      vertex 2.60842 179.974 0
      vertex 2.22354 179.898 40
      vertex 2.60842 179.974 40
    endloop
  endfacet
  facet normal -0.193723 0.981056 0
    outer loop
      vertex 2.22354 179.898 40
      vertex 2.60842 179.974 0
      vertex 2.22354 179.898 0
    endloop
  endfacet
  facet normal -0.0662518 0.997803 0
    outer loop
      vertex 3 180 0
      vertex 2.60842 179.974 40
      vertex 3 180 40
    endloop
  endfacet
  facet normal -0.0662518 0.997803 0
    outer loop
      vertex 2.60842 179.974 40
      vertex 3 180 0
      vertex 2.60842 179.974 0
    endloop
  endfacet
  facet normal 0.980972 0.194151 0
    outer loop
      vertex 209.974 177.392 40
      vertex 209.898 177.776 0
      vertex 209.898 177.776 40
    endloop
  endfacet
  facet normal 0.980972 0.194151 0
    outer loop
      vertex 209.898 177.776 0
      vertex 209.974 177.392 40
      vertex 209.974 177.392 0
    endloop
  endfacet
  facet normal 0.896455 0.443134 0
    outer loop
      vertex 209.772 178.148 40
      vertex 209.598 178.5 0
      vertex 209.598 178.5 40
    endloop
  endfacet
  facet normal 0.896455 0.443134 0
    outer loop
      vertex 209.598 178.5 0
      vertex 209.772 178.148 40
      vertex 209.772 178.148 0
    endloop
  endfacet
  facet normal 0.659766 0.751471 -0
    outer loop
      vertex 209.121 179.121 0
      vertex 208.826 179.38 40
      vertex 209.121 179.121 40
    endloop
  endfacet
  facet normal 0.659766 0.751471 0
    outer loop
      vertex 208.826 179.38 40
      vertex 209.121 179.121 0
      vertex 208.826 179.38 0
    endloop
  endfacet
  facet normal 0.194151 0.980972 -0
    outer loop
      vertex 207.776 179.898 0
      vertex 207.392 179.974 40
      vertex 207.776 179.898 40
    endloop
  endfacet
  facet normal 0.194151 0.980972 0
    outer loop
      vertex 207.392 179.974 40
      vertex 207.776 179.898 0
      vertex 207.392 179.974 0
    endloop
  endfacet
  facet normal 0.947037 -0.321125 0
    outer loop
      vertex 209.772 1.85195 40
      vertex 209.898 2.22354 0
      vertex 209.898 2.22354 40
    endloop
  endfacet
  facet normal 0.947037 -0.321125 0
    outer loop
      vertex 209.898 2.22354 0
      vertex 209.772 1.85195 40
      vertex 209.772 1.85195 0
    endloop
  endfacet
  facet normal 0.321124 -0.947037 0
    outer loop
      vertex 207.776 0.102222 0
      vertex 208.148 0.228361 40
      vertex 207.776 0.102222 40
    endloop
  endfacet
  facet normal 0.321124 -0.947037 0
    outer loop
      vertex 208.148 0.228361 40
      vertex 207.776 0.102222 0
      vertex 208.148 0.228361 0
    endloop
  endfacet
  facet normal -0.831465 -0.555577 0
    outer loop
      vertex 0.61994 1.17372 0
      vertex 0.401923 1.5 40
      vertex 0.401923 1.5 0
    endloop
  endfacet
  facet normal -0.831465 -0.555577 0
    outer loop
      vertex 0.401923 1.5 40
      vertex 0.61994 1.17372 0
      vertex 0.61994 1.17372 40
    endloop
  endfacet
  facet normal -0.659339 -0.751846 0
    outer loop
      vertex 0.878679 0.878679 0
      vertex 1.17372 0.61994 40
      vertex 0.878679 0.878679 40
    endloop
  endfacet
  facet normal -0.659339 -0.751846 -0
    outer loop
      vertex 1.17372 0.61994 40
      vertex 0.878679 0.878679 0
      vertex 1.17372 0.61994 0
    endloop
  endfacet
  facet normal -0.980786 -0.195089 0
    outer loop
      vertex 0.102222 2.22354 0
      vertex 0.0256653 2.60842 40
      vertex 0.0256653 2.60842 0
    endloop
  endfacet
  facet normal -0.980786 -0.195089 0
    outer loop
      vertex 0.0256653 2.60842 40
      vertex 0.102222 2.22354 0
      vertex 0.102222 2.22354 40
    endloop
  endfacet
  facet normal -0.831245 0.555906 0
    outer loop
      vertex 0.401923 178.5 0
      vertex 0.61994 178.826 40
      vertex 0.61994 178.826 0
    endloop
  endfacet
  facet normal -0.831245 0.555906 0
    outer loop
      vertex 0.61994 178.826 40
      vertex 0.401923 178.5 0
      vertex 0.401923 178.5 40
    endloop
  endfacet
  facet normal -0.9807 0.195519 0
    outer loop
      vertex 0.0256653 177.392 0
      vertex 0.102222 177.776 40
      vertex 0.102222 177.776 0
    endloop
  endfacet
  facet normal -0.9807 0.195519 0
    outer loop
      vertex 0.102222 177.776 40
      vertex 0.0256653 177.392 0
      vertex 0.0256653 177.392 40
    endloop
  endfacet
  facet normal -0.443185 0.89643 0
    outer loop
      vertex 1.85195 179.772 0
      vertex 1.5 179.598 40
      vertex 1.85195 179.772 40
    endloop
  endfacet
  facet normal -0.443185 0.89643 0
    outer loop
      vertex 1.5 179.598 40
      vertex 1.85195 179.772 0
      vertex 1.5 179.598 0
    endloop
  endfacet
  facet normal -0.321125 0.947037 0
    outer loop
      vertex 2.22354 179.898 0
      vertex 1.85195 179.772 40
      vertex 2.22354 179.898 40
    endloop
  endfacet
  facet normal -0.321125 0.947037 0
    outer loop
      vertex 1.85195 179.772 40
      vertex 2.22354 179.898 0
      vertex 1.85195 179.772 0
    endloop
  endfacet
  facet normal 0.751471 0.659766 0
    outer loop
      vertex 209.38 178.826 40
      vertex 209.121 179.121 0
      vertex 209.121 179.121 40
    endloop
  endfacet
  facet normal 0.751471 0.659766 0
    outer loop
      vertex 209.121 179.121 0
      vertex 209.38 178.826 40
      vertex 209.38 178.826 0
    endloop
  endfacet
  facet normal 0.831265 0.555877 0
    outer loop
      vertex 209.598 178.5 40
      vertex 209.38 178.826 0
      vertex 209.38 178.826 40
    endloop
  endfacet
  facet normal 0.831265 0.555877 0
    outer loop
      vertex 209.38 178.826 0
      vertex 209.598 178.5 40
      vertex 209.598 178.5 0
    endloop
  endfacet
  facet normal 0.89643 -0.443185 0
    outer loop
      vertex 209.598 1.5 40
      vertex 209.772 1.85195 0
      vertex 209.772 1.85195 40
    endloop
  endfacet
  facet normal 0.89643 -0.443185 0
    outer loop
      vertex 209.772 1.85195 0
      vertex 209.598 1.5 40
      vertex 209.598 1.5 0
    endloop
  endfacet
  facet normal 0.751516 -0.659714 0
    outer loop
      vertex 209.121 0.878679 40
      vertex 209.38 1.17372 0
      vertex 209.38 1.17372 40
    endloop
  endfacet
  facet normal 0.751516 -0.659714 0
    outer loop
      vertex 209.38 1.17372 0
      vertex 209.121 0.878679 40
      vertex 209.121 0.878679 0
    endloop
  endfacet
  facet normal 0.981056 -0.193723 0
    outer loop
      vertex 209.898 2.22354 40
      vertex 209.974 2.60842 0
      vertex 209.974 2.60842 40
    endloop
  endfacet
  facet normal 0.981056 -0.193723 0
    outer loop
      vertex 209.974 2.60842 0
      vertex 209.898 2.22354 40
      vertex 209.898 2.22354 0
    endloop
  endfacet
  facet normal 0.442237 -0.896898 0
    outer loop
      vertex 208.148 0.228361 0
      vertex 208.5 0.401923 40
      vertex 208.148 0.228361 40
    endloop
  endfacet
  facet normal 0.442237 -0.896898 0
    outer loop
      vertex 208.5 0.401923 40
      vertex 208.148 0.228361 0
      vertex 208.5 0.401923 0
    endloop
  endfacet
  facet normal -0.555577 -0.831465 0
    outer loop
      vertex 1.17372 0.61994 0
      vertex 1.5 0.401923 40
      vertex 1.17372 0.61994 40
    endloop
  endfacet
  facet normal -0.555577 -0.831465 -0
    outer loop
      vertex 1.5 0.401923 40
      vertex 1.17372 0.61994 0
      vertex 1.5 0.401923 0
    endloop
  endfacet
  facet normal -0.195089 -0.980786 0
    outer loop
      vertex 2.22354 0.102222 0
      vertex 2.60842 0.0256653 40
      vertex 2.22354 0.102222 40
    endloop
  endfacet
  facet normal -0.195089 -0.980786 -0
    outer loop
      vertex 2.60842 0.0256653 40
      vertex 2.22354 0.102222 0
      vertex 2.60842 0.0256653 0
    endloop
  endfacet
  facet normal -0.442288 -0.896873 0
    outer loop
      vertex 1.5 0.401923 0
      vertex 1.85195 0.228361 40
      vertex 1.5 0.401923 40
    endloop
  endfacet
  facet normal -0.442288 -0.896873 -0
    outer loop
      vertex 1.85195 0.228361 40
      vertex 1.5 0.401923 0
      vertex 1.85195 0.228361 0
    endloop
  endfacet
  facet normal -0.946929 -0.321442 0
    outer loop
      vertex 0.228361 1.85195 0
      vertex 0.102222 2.22354 40
      vertex 0.102222 2.22354 0
    endloop
  endfacet
  facet normal -0.946929 -0.321442 0
    outer loop
      vertex 0.102222 2.22354 40
      vertex 0.228361 1.85195 0
      vertex 0.228361 1.85195 40
    endloop
  endfacet
  facet normal -0.896873 -0.442288 0
    outer loop
      vertex 0.401923 1.5 0
      vertex 0.228361 1.85195 40
      vertex 0.228361 1.85195 0
    endloop
  endfacet
  facet normal -0.896873 -0.442288 0
    outer loop
      vertex 0.228361 1.85195 40
      vertex 0.401923 1.5 0
      vertex 0.401923 1.5 40
    endloop
  endfacet
  facet normal 0.831485 -0.555547 0
    outer loop
      vertex 209.38 1.17372 40
      vertex 209.598 1.5 0
      vertex 209.598 1.5 40
    endloop
  endfacet
  facet normal 0.831485 -0.555547 0
    outer loop
      vertex 209.598 1.5 0
      vertex 209.38 1.17372 40
      vertex 209.38 1.17372 0
    endloop
  endfacet
  facet normal 0.997803 -0.0662518 0
    outer loop
      vertex 209.974 2.60842 40
      vertex 210 3 0
      vertex 210 3 40
    endloop
  endfacet
  facet normal 0.997803 -0.0662518 0
    outer loop
      vertex 210 3 0
      vertex 209.974 2.60842 40
      vertex 209.974 2.60842 0
    endloop
  endfacet
  facet normal -0.321442 -0.946929 0
    outer loop
      vertex 1.85195 0.228361 0
      vertex 2.22354 0.102222 40
      vertex 1.85195 0.228361 40
    endloop
  endfacet
  facet normal -0.321442 -0.946929 -0
    outer loop
      vertex 2.22354 0.102222 40
      vertex 1.85195 0.228361 0
      vertex 2.22354 0.102222 0
    endloop
  endfacet
  facet normal -0.0654026 -0.997859 0
    outer loop
      vertex 2.60842 0.0256653 0
      vertex 3 0 40
      vertex 2.60842 0.0256653 40
    endloop
  endfacet
  facet normal -0.0654026 -0.997859 -0
    outer loop
      vertex 3 0 40
      vertex 2.60842 0.0256653 0
      vertex 3 0 0
    endloop
  endfacet
  facet normal -0.751846 -0.659339 0
    outer loop
      vertex 0.878679 0.878679 0
      vertex 0.61994 1.17372 40
      vertex 0.61994 1.17372 0
    endloop
  endfacet
  facet normal -0.751846 -0.659339 0
    outer loop
      vertex 0.61994 1.17372 40
      vertex 0.878679 0.878679 0
      vertex 0.878679 0.878679 40
    endloop
  endfacet
  facet normal 0.997856 0.0654432 0
    outer loop
      vertex 2.50428 2.93474 40
      vertex 2.5 3 2.5
      vertex 2.5 3 40
    endloop
  endfacet
  facet normal 0.997856 0.0654432 0
    outer loop
      vertex 2.5 3 2.5
      vertex 2.50428 2.93474 40
      vertex 2.50428 2.93474 2.5
    endloop
  endfacet
  facet normal 0.0654432 0.997856 -0
    outer loop
      vertex 3 2.5 2.5
      vertex 2.93474 2.50428 40
      vertex 3 2.5 40
    endloop
  endfacet
  facet normal 0.0654432 0.997856 0
    outer loop
      vertex 2.93474 2.50428 40
      vertex 3 2.5 2.5
      vertex 2.93474 2.50428 2.5
    endloop
  endfacet
  facet normal -0.998112 -0.0614223 0
    outer loop
      vertex 207.5 177 2.5
      vertex 207.496 177.065 40
      vertex 207.496 177.065 2.5
    endloop
  endfacet
  facet normal -0.998112 -0.0614223 0
    outer loop
      vertex 207.496 177.065 40
      vertex 207.5 177 2.5
      vertex 207.5 177 40
    endloop
  endfacet
  facet normal 0.658299 -0.752757 0
    outer loop
      vertex 2.64645 177.354 2.5
      vertex 2.69562 177.397 40
      vertex 2.64645 177.354 40
    endloop
  endfacet
  facet normal 0.658299 -0.752757 0
    outer loop
      vertex 2.69562 177.397 40
      vertex 2.64645 177.354 2.5
      vertex 2.69562 177.397 2.5
    endloop
  endfacet
  facet normal 0.555512 0.831509 -0
    outer loop
      vertex 2.75 2.56699 2.5
      vertex 2.69562 2.60332 40
      vertex 2.75 2.56699 40
    endloop
  endfacet
  facet normal 0.555512 0.831509 0
    outer loop
      vertex 2.69562 2.60332 40
      vertex 2.75 2.56699 2.5
      vertex 2.69562 2.60332 2.5
    endloop
  endfacet
  facet normal 0.195087 0.980786 -0
    outer loop
      vertex 2.93474 2.50428 2.5
      vertex 2.87059 2.51704 40
      vertex 2.93474 2.50428 40
    endloop
  endfacet
  facet normal 0.195087 0.980786 0
    outer loop
      vertex 2.87059 2.51704 40
      vertex 2.93474 2.50428 2.5
      vertex 2.87059 2.51704 2.5
    endloop
  endfacet
  facet normal -1 0 0
    outer loop
      vertex 207.5 85 2.5
      vertex 207.5 3 2.5
      vertex 207.5 85 7.5
    endloop
  endfacet
  facet normal -1 0 0
    outer loop
      vertex 207.5 95 7.5
      vertex 207.5 177 2.5
      vertex 207.5 95 2.5
    endloop
  endfacet
  facet normal -1 0 0
    outer loop
      vertex 207.5 177 2.5
      vertex 207.5 95 7.5
      vertex 207.5 177 40
    endloop
  endfacet
  facet normal -1 0 0
    outer loop
      vertex 207.5 85 7.5
      vertex 207.5 177 40
      vertex 207.5 95 7.5
    endloop
  endfacet
  facet normal -1 0 0
    outer loop
      vertex 207.5 3 40
      vertex 207.5 85 7.5
      vertex 207.5 3 2.5
    endloop
  endfacet
  facet normal -1 0 0
    outer loop
      vertex 207.5 85 7.5
      vertex 207.5 3 40
      vertex 207.5 177 40
    endloop
  endfacet
  facet normal 1 0 0
    outer loop
      vertex 2.5 177 40
      vertex 2.5 95 7.5
      vertex 2.5 177 2.5
    endloop
  endfacet
  facet normal 1 0 0
    outer loop
      vertex 2.5 177 40
      vertex 2.5 85 7.5
      vertex 2.5 95 7.5
    endloop
  endfacet
  facet normal 1 -0 0
    outer loop
      vertex 2.5 3 40
      vertex 2.5 85 7.5
      vertex 2.5 177 40
    endloop
  endfacet
  facet normal 1 0 0
    outer loop
      vertex 2.5 3 2.5
      vertex 2.5 85 7.5
      vertex 2.5 3 40
    endloop
  endfacet
  facet normal 1 0 0
    outer loop
      vertex 2.5 85 7.5
      vertex 2.5 3 2.5
      vertex 2.5 85 2.5
    endloop
  endfacet
  facet normal 1 0 0
    outer loop
      vertex 2.5 177 2.5
      vertex 2.5 95 7.5
      vertex 2.5 95 2.5
    endloop
  endfacet
  facet normal -0 0 1
    outer loop
      vertex 0 95 2.5
      vertex 2.5 85 2.5
      vertex 2.5 95 2.5
    endloop
  endfacet
  facet normal 0 0 1
    outer loop
      vertex 2.5 85 2.5
      vertex 0 95 2.5
      vertex 0 85 2.5
    endloop
  endfacet
  facet normal 0 0 1
    outer loop
      vertex 207 177.5 2.5
      vertex 207.5 95 2.5
      vertex 207.5 177 2.5
    endloop
  endfacet
  facet normal 0 0 1
    outer loop
      vertex 2.5 95 2.5
      vertex 207.5 95 2.5
      vertex 207 177.5 2.5
    endloop
  endfacet
  facet normal 0 0 1
    outer loop
      vertex 207 177.5 2.5
      vertex 207.5 177 2.5
      vertex 207.496 177.065 2.5
    endloop
  endfacet
  facet normal 0 0 1
    outer loop
      vertex 207.5 95 2.5
      vertex 2.5 95 2.5
      vertex 207.5 85 2.5
    endloop
  endfacet
  facet normal 0 0 1
    outer loop
      vertex 207 177.5 2.5
      vertex 207.496 177.065 2.5
      vertex 207.483 177.129 2.5
    endloop
  endfacet
  facet normal 0 0 1
    outer loop
      vertex 2.5 85 2.5
      vertex 207.5 85 2.5
      vertex 2.5 95 2.5
    endloop
  endfacet
  facet normal 0 0 1
    outer loop
      vertex 207 177.5 2.5
      vertex 207.483 177.129 2.5
      vertex 207.462 177.191 2.5
    endloop
  endfacet
  facet normal 0 0 1
    outer loop
      vertex 207.5 3 2.5
      vertex 207 2.5 2.5
      vertex 207.496 2.93474 2.5
    endloop
  endfacet
  facet normal 0 0 1
    outer loop
      vertex 207 177.5 2.5
      vertex 207.462 177.191 2.5
      vertex 207.433 177.25 2.5
    endloop
  endfacet
  facet normal 0 0 1
    outer loop
      vertex 207.496 2.93474 2.5
      vertex 207 2.5 2.5
      vertex 207.483 2.87059 2.5
    endloop
  endfacet
  facet normal 0 0 1
    outer loop
      vertex 207 177.5 2.5
      vertex 207.433 177.25 2.5
      vertex 207.397 177.304 2.5
    endloop
  endfacet
  facet normal 0 0 1
    outer loop
      vertex 207.483 2.87059 2.5
      vertex 207 2.5 2.5
      vertex 207.462 2.80866 2.5
    endloop
  endfacet
  facet normal 0 0 1
    outer loop
      vertex 207 177.5 2.5
      vertex 207.397 177.304 2.5
      vertex 207.354 177.354 2.5
    endloop
  endfacet
  facet normal 0 0 1
    outer loop
      vertex 207.462 2.80866 2.5
      vertex 207 2.5 2.5
      vertex 207.433 2.75 2.5
    endloop
  endfacet
  facet normal 0 0 1
    outer loop
      vertex 207 177.5 2.5
      vertex 207.354 177.354 2.5
      vertex 207.304 177.397 2.5
    endloop
  endfacet
  facet normal 0 0 1
    outer loop
      vertex 207.433 2.75 2.5
      vertex 207 2.5 2.5
      vertex 207.397 2.69562 2.5
    endloop
  endfacet
  facet normal 0 0 1
    outer loop
      vertex 207 177.5 2.5
      vertex 207.304 177.397 2.5
      vertex 207.25 177.433 2.5
    endloop
  endfacet
  facet normal 0 0 1
    outer loop
      vertex 207.397 2.69562 2.5
      vertex 207 2.5 2.5
      vertex 207.354 2.64645 2.5
    endloop
  endfacet
  facet normal 0 0 1
    outer loop
      vertex 207 177.5 2.5
      vertex 207.25 177.433 2.5
      vertex 207.191 177.462 2.5
    endloop
  endfacet
  facet normal 0 0 1
    outer loop
      vertex 207.354 2.64645 2.5
      vertex 207 2.5 2.5
      vertex 207.304 2.60332 2.5
    endloop
  endfacet
  facet normal 0 0 1
    outer loop
      vertex 207 177.5 2.5
      vertex 207.191 177.462 2.5
      vertex 207.129 177.483 2.5
    endloop
  endfacet
  facet normal 0 0 1
    outer loop
      vertex 207.304 2.60332 2.5
      vertex 207 2.5 2.5
      vertex 207.25 2.56699 2.5
    endloop
  endfacet
  facet normal 0 0 1
    outer loop
      vertex 207 177.5 2.5
      vertex 207.129 177.483 2.5
      vertex 207.065 177.496 2.5
    endloop
  endfacet
  facet normal 0 0 1
    outer loop
      vertex 207.25 2.56699 2.5
      vertex 207 2.5 2.5
      vertex 207.191 2.53806 2.5
    endloop
  endfacet
  facet normal 0 0 1
    outer loop
      vertex 207.191 2.53806 2.5
      vertex 207 2.5 2.5
      vertex 207.129 2.51704 2.5
    endloop
  endfacet
  facet normal 0 0 1
    outer loop
      vertex 207.129 2.51704 2.5
      vertex 207 2.5 2.5
      vertex 207.065 2.50428 2.5
    endloop
  endfacet
  facet normal 0 0 1
    outer loop
      vertex 2.5 95 2.5
      vertex 207 177.5 2.5
      vertex 3 177.5 2.5
    endloop
  endfacet
  facet normal 0 -0 1
    outer loop
      vertex 207 2.5 2.5
      vertex 207.5 85 2.5
      vertex 2.5 85 2.5
    endloop
  endfacet
  facet normal 0 0 1
    outer loop
      vertex 2.5 177 2.5
      vertex 3 177.5 2.5
      vertex 2.93474 177.496 2.5
    endloop
  endfacet
  facet normal 0 0 1
    outer loop
      vertex 207.5 85 2.5
      vertex 207 2.5 2.5
      vertex 207.5 3 2.5
    endloop
  endfacet
  facet normal 0 0 1
    outer loop
      vertex 2.5 177 2.5
      vertex 2.93474 177.496 2.5
      vertex 2.87059 177.483 2.5
    endloop
  endfacet
  facet normal 0 0 1
    outer loop
      vertex 207 2.5 2.5
      vertex 2.5 85 2.5
      vertex 3 2.5 2.5
    endloop
  endfacet
  facet normal 0 0 1
    outer loop
      vertex 2.5 177 2.5
      vertex 2.87059 177.483 2.5
      vertex 2.80866 177.462 2.5
    endloop
  endfacet
  facet normal -0 0 1
    outer loop
      vertex 2.5 3 2.5
      vertex 3 2.5 2.5
      vertex 2.5 85 2.5
    endloop
  endfacet
  facet normal 0 0 1
    outer loop
      vertex 2.5 177 2.5
      vertex 2.80866 177.462 2.5
      vertex 2.75 177.433 2.5
    endloop
  endfacet
  facet normal 0 0 1
    outer loop
      vertex 3 2.5 2.5
      vertex 2.5 3 2.5
      vertex 2.93474 2.50428 2.5
    endloop
  endfacet
  facet normal 0 0 1
    outer loop
      vertex 2.5 177 2.5
      vertex 2.75 177.433 2.5
      vertex 2.69562 177.397 2.5
    endloop
  endfacet
  facet normal 0 0 1
    outer loop
      vertex 2.93474 2.50428 2.5
      vertex 2.5 3 2.5
      vertex 2.87059 2.51704 2.5
    endloop
  endfacet
  facet normal 0 0 1
    outer loop
      vertex 2.5 177 2.5
      vertex 2.69562 177.397 2.5
      vertex 2.64645 177.354 2.5
    endloop
  endfacet
  facet normal 0 0 1
    outer loop
      vertex 2.87059 2.51704 2.5
      vertex 2.5 3 2.5
      vertex 2.80866 2.53806 2.5
    endloop
  endfacet
  facet normal 0 0 1
    outer loop
      vertex 2.5 177 2.5
      vertex 2.64645 177.354 2.5
      vertex 2.60332 177.304 2.5
    endloop
  endfacet
  facet normal 0 0 1
    outer loop
      vertex 2.80866 2.53806 2.5
      vertex 2.5 3 2.5
      vertex 2.75 2.56699 2.5
    endloop
  endfacet
  facet normal 0 0 1
    outer loop
      vertex 2.5 177 2.5
      vertex 2.60332 177.304 2.5
      vertex 2.56699 177.25 2.5
    endloop
  endfacet
  facet normal 0 0 1
    outer loop
      vertex 2.75 2.56699 2.5
      vertex 2.5 3 2.5
      vertex 2.69562 2.60332 2.5
    endloop
  endfacet
  facet normal 0 0 1
    outer loop
      vertex 2.5 177 2.5
      vertex 2.56699 177.25 2.5
      vertex 2.53806 177.191 2.5
    endloop
  endfacet
  facet normal 0 0 1
    outer loop
      vertex 2.69562 2.60332 2.5
      vertex 2.5 3 2.5
      vertex 2.64645 2.64645 2.5
    endloop
  endfacet
  facet normal 0 0 1
    outer loop
      vertex 2.5 177 2.5
      vertex 2.53806 177.191 2.5
      vertex 2.51704 177.129 2.5
    endloop
  endfacet
  facet normal 0 0 1
    outer loop
      vertex 2.64645 2.64645 2.5
      vertex 2.5 3 2.5
      vertex 2.60332 2.69562 2.5
    endloop
  endfacet
  facet normal 0 0 1
    outer loop
      vertex 2.5 177 2.5
      vertex 2.51704 177.129 2.5
      vertex 2.50428 177.065 2.5
    endloop
  endfacet
  facet normal 0 0 1
    outer loop
      vertex 2.60332 2.69562 2.5
      vertex 2.5 3 2.5
      vertex 2.56699 2.75 2.5
    endloop
  endfacet
  facet normal 0 0 1
    outer loop
      vertex 3 177.5 2.5
      vertex 2.5 177 2.5
      vertex 2.5 95 2.5
    endloop
  endfacet
  facet normal 0 0 1
    outer loop
      vertex 2.56699 2.75 2.5
      vertex 2.5 3 2.5
      vertex 2.53806 2.80866 2.5
    endloop
  endfacet
  facet normal 0 0 1
    outer loop
      vertex 2.53806 2.80866 2.5
      vertex 2.5 3 2.5
      vertex 2.51704 2.87059 2.5
    endloop
  endfacet
  facet normal 0 0 1
    outer loop
      vertex 2.51704 2.87059 2.5
      vertex 2.5 3 2.5
      vertex 2.50428 2.93474 2.5
    endloop
  endfacet
  facet normal -0 0 1
    outer loop
      vertex 207.5 95 2.5
      vertex 210 85 2.5
      vertex 210 95 2.5
    endloop
  endfacet
  facet normal 0 0 1
    outer loop
      vertex 210 85 2.5
      vertex 207.5 95 2.5
      vertex 207.5 85 2.5
    endloop
  endfacet
  facet normal 0.997839 -0.0657039 0
    outer loop
      vertex 2.5 177 40
      vertex 2.50428 177.065 2.5
      vertex 2.50428 177.065 40
    endloop
  endfacet
  facet normal 0.997839 -0.0657039 0
    outer loop
      vertex 2.50428 177.065 2.5
      vertex 2.5 177 40
      vertex 2.5 177 2.5
    endloop
  endfacet
  facet normal 0 1 -0
    outer loop
      vertex 207 2.5 2.5
      vertex 3 2.5 40
      vertex 207 2.5 40
    endloop
  endfacet
  facet normal 0 1 0
    outer loop
      vertex 3 2.5 40
      vertex 207 2.5 2.5
      vertex 3 2.5 2.5
    endloop
  endfacet
  facet normal 0.980786 0.195087 0
    outer loop
      vertex 2.51704 2.87059 40
      vertex 2.50428 2.93474 2.5
      vertex 2.50428 2.93474 40
    endloop
  endfacet
  facet normal 0.980786 0.195087 0
    outer loop
      vertex 2.50428 2.93474 2.5
      vertex 2.51704 2.87059 40
      vertex 2.51704 2.87059 2.5
    endloop
  endfacet
  facet normal 0 -1 0
    outer loop
      vertex 3 177.5 2.5
      vertex 207 177.5 40
      vertex 3 177.5 40
    endloop
  endfacet
  facet normal 0 -1 -0
    outer loop
      vertex 207 177.5 40
      vertex 3 177.5 2.5
      vertex 207 177.5 2.5
    endloop
  endfacet
  facet normal -0.5547 -0.83205 0
    outer loop
      vertex 207.25 177.433 2.5
      vertex 207.304 177.397 40
      vertex 207.25 177.433 40
    endloop
  endfacet
  facet normal -0.5547 -0.83205 -0
    outer loop
      vertex 207.304 177.397 40
      vertex 207.25 177.433 2.5
      vertex 207.304 177.397 2.5
    endloop
  endfacet
  facet normal -0.0657039 0.997839 0
    outer loop
      vertex 207.065 2.50428 2.5
      vertex 207 2.5 40
      vertex 207.065 2.50428 40
    endloop
  endfacet
  facet normal -0.0657039 0.997839 0
    outer loop
      vertex 207 2.5 40
      vertex 207.065 2.50428 2.5
      vertex 207 2.5 2.5
    endloop
  endfacet
  facet normal -0.558206 0.829703 0
    outer loop
      vertex 207.304 2.60332 2.5
      vertex 207.25 2.56699 40
      vertex 207.304 2.60332 40
    endloop
  endfacet
  facet normal -0.558206 0.829703 0
    outer loop
      vertex 207.25 2.56699 40
      vertex 207.304 2.60332 2.5
      vertex 207.25 2.56699 2.5
    endloop
  endfacet
  facet normal -0.947034 0.321132 0
    outer loop
      vertex 207.462 2.80866 2.5
      vertex 207.483 2.87059 40
      vertex 207.483 2.87059 2.5
    endloop
  endfacet
  facet normal -0.947034 0.321132 0
    outer loop
      vertex 207.483 2.87059 40
      vertex 207.462 2.80866 2.5
      vertex 207.462 2.80866 40
    endloop
  endfacet
  facet normal -0.998127 0.0611785 0
    outer loop
      vertex 207.496 2.93474 2.5
      vertex 207.5 3 40
      vertex 207.5 3 2.5
    endloop
  endfacet
  facet normal -0.998127 0.0611785 0
    outer loop
      vertex 207.5 3 40
      vertex 207.496 2.93474 2.5
      vertex 207.496 2.93474 40
    endloop
  endfacet
  facet normal 0.829703 -0.558206 0
    outer loop
      vertex 2.56699 177.25 40
      vertex 2.60332 177.304 2.5
      vertex 2.60332 177.304 40
    endloop
  endfacet
  facet normal 0.829703 -0.558206 0
    outer loop
      vertex 2.60332 177.304 2.5
      vertex 2.56699 177.25 40
      vertex 2.56699 177.25 2.5
    endloop
  endfacet
  facet normal 0.89787 -0.440261 0
    outer loop
      vertex 2.53806 177.191 40
      vertex 2.56699 177.25 2.5
      vertex 2.56699 177.25 40
    endloop
  endfacet
  facet normal 0.89787 -0.440261 0
    outer loop
      vertex 2.56699 177.25 2.5
      vertex 2.53806 177.191 40
      vertex 2.53806 177.191 2.5
    endloop
  endfacet
  facet normal 0.321407 0.946941 -0
    outer loop
      vertex 2.87059 2.51704 2.5
      vertex 2.80866 2.53806 40
      vertex 2.87059 2.51704 40
    endloop
  endfacet
  facet normal 0.321407 0.946941 0
    outer loop
      vertex 2.80866 2.53806 40
      vertex 2.87059 2.51704 2.5
      vertex 2.80866 2.53806 2.5
    endloop
  endfacet
  facet normal 0.0611785 -0.998127 0
    outer loop
      vertex 2.93474 177.496 2.5
      vertex 3 177.5 40
      vertex 2.93474 177.496 40
    endloop
  endfacet
  facet normal 0.0611785 -0.998127 0
    outer loop
      vertex 3 177.5 40
      vertex 2.93474 177.496 2.5
      vertex 3 177.5 2.5
    endloop
  endfacet
  facet normal -0.897449 -0.441119 0
    outer loop
      vertex 207.462 177.191 2.5
      vertex 207.433 177.25 40
      vertex 207.433 177.25 2.5
    endloop
  endfacet
  facet normal -0.897449 -0.441119 0
    outer loop
      vertex 207.433 177.25 40
      vertex 207.462 177.191 2.5
      vertex 207.462 177.191 40
    endloop
  endfacet
  facet normal -0.980078 0.198613 0
    outer loop
      vertex 207.483 2.87059 2.5
      vertex 207.496 2.93474 40
      vertex 207.496 2.93474 2.5
    endloop
  endfacet
  facet normal -0.980078 0.198613 0
    outer loop
      vertex 207.496 2.93474 40
      vertex 207.483 2.87059 2.5
      vertex 207.483 2.87059 40
    endloop
  endfacet
  facet normal -0.833839 0.552008 0
    outer loop
      vertex 207.397 2.69562 2.5
      vertex 207.433 2.75 40
      vertex 207.433 2.75 2.5
    endloop
  endfacet
  facet normal -0.833839 0.552008 0
    outer loop
      vertex 207.433 2.75 40
      vertex 207.397 2.69562 2.5
      vertex 207.397 2.69562 40
    endloop
  endfacet
  facet normal -0.896435 0.443175 0
    outer loop
      vertex 207.433 2.75 2.5
      vertex 207.462 2.80866 40
      vertex 207.462 2.80866 2.5
    endloop
  endfacet
  facet normal -0.896435 0.443175 0
    outer loop
      vertex 207.462 2.80866 40
      vertex 207.433 2.75 2.5
      vertex 207.433 2.75 40
    endloop
  endfacet
  facet normal -0.65317 0.757211 0
    outer loop
      vertex 207.354 2.64645 2.5
      vertex 207.304 2.60332 40
      vertex 207.354 2.64645 40
    endloop
  endfacet
  facet normal -0.65317 0.757211 0
    outer loop
      vertex 207.304 2.60332 40
      vertex 207.354 2.64645 2.5
      vertex 207.304 2.60332 2.5
    endloop
  endfacet
  facet normal 0.757211 -0.65317 0
    outer loop
      vertex 2.60332 177.304 40
      vertex 2.64645 177.354 2.5
      vertex 2.64645 177.354 40
    endloop
  endfacet
  facet normal 0.757211 -0.65317 0
    outer loop
      vertex 2.64645 177.354 2.5
      vertex 2.60332 177.304 40
      vertex 2.60332 177.304 2.5
    endloop
  endfacet
  facet normal 0.947052 -0.321081 0
    outer loop
      vertex 2.51704 177.129 40
      vertex 2.53806 177.191 2.5
      vertex 2.53806 177.191 40
    endloop
  endfacet
  facet normal 0.947052 -0.321081 0
    outer loop
      vertex 2.53806 177.191 2.5
      vertex 2.51704 177.129 40
      vertex 2.51704 177.129 2.5
    endloop
  endfacet
  facet normal 0.442314 0.89686 -0
    outer loop
      vertex 2.80866 2.53806 2.5
      vertex 2.75 2.56699 40
      vertex 2.80866 2.53806 40
    endloop
  endfacet
  facet normal 0.442314 0.89686 0
    outer loop
      vertex 2.75 2.56699 40
      vertex 2.80866 2.53806 2.5
      vertex 2.75 2.56699 2.5
    endloop
  endfacet
  facet normal 0.831509 0.555512 0
    outer loop
      vertex 2.60332 2.69562 40
      vertex 2.56699 2.75 2.5
      vertex 2.56699 2.75 40
    endloop
  endfacet
  facet normal 0.831509 0.555512 0
    outer loop
      vertex 2.56699 2.75 2.5
      vertex 2.60332 2.69562 40
      vertex 2.60332 2.69562 2.5
    endloop
  endfacet
  facet normal 0.751771 0.659424 0
    outer loop
      vertex 2.64645 2.64645 40
      vertex 2.60332 2.69562 2.5
      vertex 2.60332 2.69562 40
    endloop
  endfacet
  facet normal 0.751771 0.659424 0
    outer loop
      vertex 2.60332 2.69562 2.5
      vertex 2.64645 2.64645 40
      vertex 2.64645 2.64645 2.5
    endloop
  endfacet
  facet normal 0.89686 0.442314 0
    outer loop
      vertex 2.56699 2.75 40
      vertex 2.53806 2.80866 2.5
      vertex 2.53806 2.80866 40
    endloop
  endfacet
  facet normal 0.89686 0.442314 0
    outer loop
      vertex 2.53806 2.80866 2.5
      vertex 2.56699 2.75 40
      vertex 2.56699 2.75 2.5
    endloop
  endfacet
  facet normal 0.946941 0.321407 0
    outer loop
      vertex 2.53806 2.80866 40
      vertex 2.51704 2.87059 2.5
      vertex 2.51704 2.87059 40
    endloop
  endfacet
  facet normal 0.946941 0.321407 0
    outer loop
      vertex 2.51704 2.87059 2.5
      vertex 2.53806 2.80866 40
      vertex 2.53806 2.80866 2.5
    endloop
  endfacet
  facet normal 0.198613 -0.980078 0
    outer loop
      vertex 2.87059 177.483 2.5
      vertex 2.93474 177.496 40
      vertex 2.87059 177.483 40
    endloop
  endfacet
  facet normal 0.198613 -0.980078 0
    outer loop
      vertex 2.93474 177.496 40
      vertex 2.87059 177.483 2.5
      vertex 2.93474 177.496 2.5
    endloop
  endfacet
  facet normal 0.321132 -0.947034 0
    outer loop
      vertex 2.80866 177.462 2.5
      vertex 2.87059 177.483 40
      vertex 2.80866 177.462 40
    endloop
  endfacet
  facet normal 0.321132 -0.947034 0
    outer loop
      vertex 2.87059 177.483 40
      vertex 2.80866 177.462 2.5
      vertex 2.87059 177.483 2.5
    endloop
  endfacet
  facet normal 0.552008 -0.833839 0
    outer loop
      vertex 2.69562 177.397 2.5
      vertex 2.75 177.433 40
      vertex 2.69562 177.397 40
    endloop
  endfacet
  facet normal 0.552008 -0.833839 0
    outer loop
      vertex 2.75 177.433 40
      vertex 2.69562 177.397 2.5
      vertex 2.75 177.433 2.5
    endloop
  endfacet
  facet normal -0.0614223 -0.998112 0
    outer loop
      vertex 207 177.5 2.5
      vertex 207.065 177.496 40
      vertex 207 177.5 40
    endloop
  endfacet
  facet normal -0.0614223 -0.998112 -0
    outer loop
      vertex 207.065 177.496 40
      vertex 207 177.5 2.5
      vertex 207.065 177.496 2.5
    endloop
  endfacet
  facet normal -0.979987 -0.19906 0
    outer loop
      vertex 207.496 177.065 2.5
      vertex 207.483 177.129 40
      vertex 207.483 177.129 2.5
    endloop
  endfacet
  facet normal -0.979987 -0.19906 0
    outer loop
      vertex 207.483 177.129 40
      vertex 207.496 177.065 2.5
      vertex 207.496 177.065 40
    endloop
  endfacet
  facet normal -0.195527 0.980698 0
    outer loop
      vertex 207.129 2.51704 2.5
      vertex 207.065 2.50428 40
      vertex 207.129 2.51704 40
    endloop
  endfacet
  facet normal -0.195527 0.980698 0
    outer loop
      vertex 207.065 2.50428 40
      vertex 207.129 2.51704 2.5
      vertex 207.065 2.50428 2.5
    endloop
  endfacet
  facet normal -0.752757 0.658299 0
    outer loop
      vertex 207.354 2.64645 2.5
      vertex 207.397 2.69562 40
      vertex 207.397 2.69562 2.5
    endloop
  endfacet
  facet normal -0.752757 0.658299 0
    outer loop
      vertex 207.397 2.69562 40
      vertex 207.354 2.64645 2.5
      vertex 207.354 2.64645 40
    endloop
  endfacet
  facet normal 0.980698 -0.195527 0
    outer loop
      vertex 2.50428 177.065 40
      vertex 2.51704 177.129 2.5
      vertex 2.51704 177.129 40
    endloop
  endfacet
  facet normal 0.980698 -0.195527 0
    outer loop
      vertex 2.51704 177.129 2.5
      vertex 2.50428 177.065 40
      vertex 2.50428 177.065 2.5
    endloop
  endfacet
  facet normal 0.659424 0.751771 -0
    outer loop
      vertex 2.69562 2.60332 2.5
      vertex 2.64645 2.64645 40
      vertex 2.69562 2.60332 40
    endloop
  endfacet
  facet normal 0.659424 0.751771 0
    outer loop
      vertex 2.64645 2.64645 40
      vertex 2.69562 2.60332 2.5
      vertex 2.64645 2.64645 2.5
    endloop
  endfacet
  facet normal 0.443175 -0.896435 0
    outer loop
      vertex 2.75 177.433 2.5
      vertex 2.80866 177.462 40
      vertex 2.75 177.433 40
    endloop
  endfacet
  facet normal 0.443175 -0.896435 0
    outer loop
      vertex 2.80866 177.462 40
      vertex 2.75 177.433 2.5
      vertex 2.80866 177.462 2.5
    endloop
  endfacet
  facet normal -0.19906 -0.979987 0
    outer loop
      vertex 207.065 177.496 2.5
      vertex 207.129 177.483 40
      vertex 207.065 177.496 40
    endloop
  endfacet
  facet normal -0.19906 -0.979987 -0
    outer loop
      vertex 207.129 177.483 40
      vertex 207.065 177.496 2.5
      vertex 207.129 177.483 2.5
    endloop
  endfacet
  facet normal -0.652039 -0.758185 0
    outer loop
      vertex 207.304 177.397 2.5
      vertex 207.354 177.354 40
      vertex 207.304 177.397 40
    endloop
  endfacet
  facet normal -0.652039 -0.758185 -0
    outer loop
      vertex 207.354 177.354 40
      vertex 207.304 177.397 2.5
      vertex 207.354 177.354 2.5
    endloop
  endfacet
  facet normal -0.758185 -0.652039 0
    outer loop
      vertex 207.397 177.304 2.5
      vertex 207.354 177.354 40
      vertex 207.354 177.354 2.5
    endloop
  endfacet
  facet normal -0.758185 -0.652039 0
    outer loop
      vertex 207.354 177.354 40
      vertex 207.397 177.304 2.5
      vertex 207.397 177.304 40
    endloop
  endfacet
  facet normal -0.83205 -0.5547 0
    outer loop
      vertex 207.433 177.25 2.5
      vertex 207.397 177.304 40
      vertex 207.397 177.304 2.5
    endloop
  endfacet
  facet normal -0.83205 -0.5547 0
    outer loop
      vertex 207.397 177.304 40
      vertex 207.433 177.25 2.5
      vertex 207.433 177.25 40
    endloop
  endfacet
  facet normal -0.947145 -0.320807 0
    outer loop
      vertex 207.483 177.129 2.5
      vertex 207.462 177.191 40
      vertex 207.462 177.191 2.5
    endloop
  endfacet
  facet normal -0.947145 -0.320807 0
    outer loop
      vertex 207.462 177.191 40
      vertex 207.483 177.129 2.5
      vertex 207.483 177.129 40
    endloop
  endfacet
  facet normal -0.440261 0.89787 0
    outer loop
      vertex 207.25 2.56699 2.5
      vertex 207.191 2.53806 40
      vertex 207.25 2.56699 40
    endloop
  endfacet
  facet normal -0.440261 0.89787 0
    outer loop
      vertex 207.191 2.53806 40
      vertex 207.25 2.56699 2.5
      vertex 207.191 2.53806 2.5
    endloop
  endfacet
  facet normal -0.321081 0.947052 0
    outer loop
      vertex 207.191 2.53806 2.5
      vertex 207.129 2.51704 40
      vertex 207.191 2.53806 40
    endloop
  endfacet
  facet normal -0.321081 0.947052 0
    outer loop
      vertex 207.129 2.51704 40
      vertex 207.191 2.53806 2.5
      vertex 207.129 2.51704 2.5
    endloop
  endfacet
  facet normal -0.320807 -0.947145 0
    outer loop
      vertex 207.129 177.483 2.5
      vertex 207.191 177.462 40
      vertex 207.129 177.483 40
    endloop
  endfacet
  facet normal -0.320807 -0.947145 -0
    outer loop
      vertex 207.191 177.462 40
      vertex 207.129 177.483 2.5
      vertex 207.191 177.462 2.5
    endloop
  endfacet
  facet normal -0.441119 -0.897449 0
    outer loop
      vertex 207.191 177.462 2.5
      vertex 207.25 177.433 40
      vertex 207.191 177.462 40
    endloop
  endfacet
  facet normal -0.441119 -0.897449 -0
    outer loop
      vertex 207.25 177.433 40
      vertex 207.191 177.462 2.5
      vertex 207.25 177.433 2.5
    endloop
  endfacet
  facet normal 0 0 -1
    outer loop
      vertex 0 85 7.5
      vertex 2.5 95 7.5
      vertex 2.5 85 7.5
    endloop
  endfacet
  facet normal -0 0 -1
    outer loop
      vertex 2.5 95 7.5
      vertex 0 85 7.5
      vertex 0 95 7.5
    endloop
  endfacet
  facet normal 0 1 -0
    outer loop
      vertex 2.5 85 2.5
      vertex 0 85 7.5
      vertex 2.5 85 7.5
    endloop
  endfacet
  facet normal 0 1 0
    outer loop
      vertex 0 85 7.5
      vertex 2.5 85 2.5
      vertex 0 85 2.5
    endloop
  endfacet
  facet normal 0 -1 0
    outer loop
      vertex 0 95 2.5
      vertex 2.5 95 7.5
      vertex 0 95 7.5
    endloop
  endfacet
  facet normal 0 -1 -0
    outer loop
      vertex 2.5 95 7.5
      vertex 0 95 2.5
      vertex 2.5 95 2.5
    endloop
  endfacet
  facet normal 0 0 -1
    outer loop
      vertex 207.5 85 7.5
      vertex 210 95 7.5
      vertex 210 85 7.5
    endloop
  endfacet
  facet normal -0 0 -1
    outer loop
      vertex 210 95 7.5
      vertex 207.5 85 7.5
      vertex 207.5 95 7.5
    endloop
  endfacet
  facet normal 0 -1 0
    outer loop
      vertex 207.5 95 2.5
      vertex 210 95 7.5
      vertex 207.5 95 7.5
    endloop
  endfacet
  facet normal 0 -1 -0
    outer loop
      vertex 210 95 7.5
      vertex 207.5 95 2.5
      vertex 210 95 2.5
    endloop
  endfacet
  facet normal 0 1 -0
    outer loop
      vertex 210 85 2.5
      vertex 207.5 85 7.5
      vertex 210 85 7.5
    endloop
  endfacet
  facet normal 0 1 0
    outer loop
      vertex 207.5 85 7.5
      vertex 210 85 2.5
      vertex 207.5 85 2.5
    endloop
  endfacet
endsolid OpenSCAD_Model
